<svg width="1024" height="1024" viewBox="0 0 1024 1024" fill="none" xmlns="http://www.w3.org/2000/svg">
<path d="M251.744 332.555C271.932 316.853 319.972 344.705 341.468 360.594L361.095 657.804C347.076 693.32 297.167 758.744 209.686 736.313C100.335 708.274 117.158 624.158 117.158 596.119C117.158 568.08 226.509 352.182 251.744 332.555Z" fill="#30E7D1"/>
<path d="M675.152 282.068C657.207 282.068 624.682 315.714 610.663 332.538L585.428 439.085L714.406 674.611C772.353 657.788 880.957 596.102 851.797 483.947C815.346 343.753 697.583 282.068 675.152 282.068Z" fill="#00AEE7"/>
<path fill-rule="evenodd" clip-rule="evenodd" d="M722.799 563.491C726.452 546.925 728.379 529.689 728.379 511.992C728.379 383.465 626.698 279.273 501.268 279.273C375.838 279.273 274.156 383.465 274.156 511.992C274.156 640.519 375.838 744.711 501.268 744.711C503.466 744.711 505.657 744.679 507.841 744.615C508.361 744.687 508.979 744.724 509.699 744.724C531.966 744.724 687.588 740.157 767.198 726.901C820.573 720.894 856.884 695.929 879.147 660.89C895.709 634.823 903.223 603.006 907.05 586.801C907.724 583.947 908.284 581.577 908.758 579.808C916.784 549.895 899.04 519.14 869.128 511.115C839.215 503.09 808.46 520.833 800.434 550.746C798.68 557.283 797.608 561.773 796.656 565.758C795.468 570.732 794.467 574.92 792.564 581.322C789.94 590.147 787.319 596.281 784.483 600.745C781.948 604.735 779.213 607.456 775.484 609.604C771.569 611.859 764.009 614.932 749.927 615.871C749.178 615.921 748.422 615.958 747.661 615.984L747.956 615.734C731.134 615.735 720.478 578.723 722.721 565.265C722.842 564.538 722.866 563.95 722.799 563.491Z" fill="#30E7D1"/>
<path d="M643.398 524.552C643.398 507.748 643.398 486.742 656 486.742C668.602 486.742 673.986 499.28 673.988 516.084V562.324C673.988 574.9 667.81 581.509 662.288 581.977C646.664 583.302 643.398 570.764 643.398 558.161V524.552Z" fill="white"/>
<path fill-rule="evenodd" clip-rule="evenodd" d="M647.376 492.357H656.232C658.441 492.357 660.232 494.148 660.232 496.357V543.911C660.232 547.076 656.731 548.987 654.069 547.276L643.404 540.42V558.165C643.404 570.769 646.67 583.306 662.294 581.982C667.816 581.513 673.994 574.904 673.994 562.329V516.089C673.992 499.284 668.608 486.747 656.006 486.747C651.98 486.747 649.24 488.891 647.376 492.357Z" fill="#002C3F"/>
<path d="M491.852 524.552C491.852 507.748 491.852 486.742 504.453 486.742C517.055 486.742 522.44 499.28 522.441 516.084V562.324C522.441 574.9 516.264 581.509 510.741 581.977C495.117 583.302 491.852 570.764 491.852 558.161V524.552Z" fill="white"/>
<path fill-rule="evenodd" clip-rule="evenodd" d="M495.824 492.349H504.7C506.909 492.349 508.7 494.14 508.7 496.349V543.904C508.7 547.068 505.199 548.98 502.537 547.268L491.852 540.399V558.16C491.852 570.763 495.117 583.301 510.741 581.976C516.264 581.508 522.441 574.899 522.441 562.323V516.083C522.44 499.279 517.055 486.741 504.453 486.741C500.428 486.741 497.689 488.884 495.824 492.349Z" fill="#002C3F"/>
</svg>
